<svg width="567" height="120" viewBox="0 0 567 120" fill="none" xmlns="http://www.w3.org/2000/svg">
<path fill-rule="evenodd" clip-rule="evenodd" d="M57.6605 32.6036C57.6488 32.6176 57.6372 32.6318 57.6257 32.6461L57.6261 32.6464L54.9 36.0432C53.8962 37.294 54.0964 39.1216 55.3471 40.1254L59.8765 43.7605C61.1272 44.7643 62.9549 44.5641 63.9587 43.3134L67.5937 38.784C68.5975 37.5333 68.3973 35.7056 67.1466 34.7018L62.6172 31.0667C61.3665 30.0629 59.5388 30.2631 58.535 31.5139L57.6605 32.6036Z" fill="white"/>
<path fill-rule="evenodd" clip-rule="evenodd" d="M59.4577 21.0845L57.6402 23.3492L57.6404 23.3494C57.6404 23.3494 57.6404 23.3495 57.6404 23.3495L55.8228 25.6142C53.8152 28.1156 54.2156 31.771 56.7171 33.7786L65.7758 41.0487C68.2773 43.0563 71.9326 42.6559 73.9402 40.1544L75.7578 37.8898C75.7709 37.8733 75.784 37.8569 75.797 37.8403L77.5751 35.6248C78.5789 34.3741 78.3787 32.5464 77.128 31.5426L63.5399 20.6374C62.2892 19.6336 60.4615 19.8338 59.4577 21.0845Z" fill="white"/>
<path d="M67.8723 17.595L66.367 19.4707L70.1184 22.4815L71.6238 20.6058L67.8723 17.595ZM73.4413 18.3411C74.2727 17.3052 74.1069 15.7914 73.0709 14.96C72.035 14.1286 70.5213 14.2944 69.6899 15.3303L73.4413 18.3411ZM71.6238 20.6058L73.4413 18.3411L69.6899 15.3303L67.8723 17.595L71.6238 20.6058Z" fill="white"/>
<path d="M75.0872 22.4045L73.5818 24.2802L77.3332 27.291L78.8386 25.4152L75.0872 22.4045ZM80.6561 23.1506C81.4875 22.1146 81.3217 20.6009 80.2858 19.7695C79.2499 18.9381 77.7361 19.1039 76.9047 20.1398L80.6561 23.1506ZM78.8386 25.4152L80.6561 23.1506L76.9047 20.1398L75.0872 22.4045L78.8386 25.4152Z" fill="white"/>
<path fill-rule="evenodd" clip-rule="evenodd" d="M49.6481 94.2993C60.2668 96.4387 71.7267 93.6113 80.2704 85.6779C88.8139 77.7447 92.4813 66.5256 91.1335 55.7779C80.5148 53.6385 69.0549 56.4659 60.5112 64.3993C51.9677 72.3325 48.3002 83.5516 49.6481 94.2993Z" fill="white"/>
<path fill-rule="evenodd" clip-rule="evenodd" d="M24.5719 54.3848C21.5321 63.1165 22.5951 73.1352 28.3138 81.2795C34.0324 89.4237 43.0948 93.8253 52.3398 93.9311C55.3795 85.1993 54.3166 75.1807 48.5979 67.0364C42.8792 58.8921 33.8168 54.4906 24.5719 54.3848Z" fill="white"/>
<path d="M52.1793 94.4283V100.984M52.1793 94.4283L53.3333 91.6425C58.1199 80.087 67.811 71.2684 79.7656 67.5901V67.5901M52.1793 94.4283L50.4518 89.4684C47.8668 82.0461 42.1155 76.1574 34.7564 73.3977V73.3977" stroke="white" stroke-width="4.81016" stroke-linecap="round"/>
<path d="M55.0834 46.5909C42.0163 65.4657 63.7945 55.3024 52.1795 88.6963" stroke="white" stroke-width="4.81016" stroke-linecap="round"/>
<path d="M142.856 84.64C139.87 84.64 137.182 84.2773 134.792 83.552C132.403 82.784 130.12 81.4613 127.944 79.584C127.39 79.1147 126.963 78.5813 126.664 77.984C126.366 77.3867 126.216 76.7893 126.216 76.192C126.216 75.2107 126.558 74.3573 127.24 73.632C127.966 72.864 128.862 72.48 129.928 72.48C130.739 72.48 131.464 72.736 132.104 73.248C133.726 74.5707 135.326 75.5733 136.904 76.256C138.526 76.9387 140.51 77.28 142.856 77.28C144.435 77.28 145.886 77.0453 147.208 76.576C148.531 76.064 149.598 75.4027 150.408 74.592C151.219 73.7387 151.624 72.7787 151.624 71.712C151.624 70.432 151.24 69.344 150.472 68.448C149.704 67.552 148.531 66.8053 146.952 66.208C145.374 65.568 143.368 65.0773 140.936 64.736C138.632 64.3947 136.606 63.8827 134.856 63.2C133.107 62.4747 131.635 61.5787 130.44 60.512C129.288 59.4027 128.414 58.1227 127.816 56.672C127.219 55.1787 126.92 53.5147 126.92 51.68C126.92 48.9067 127.624 46.5387 129.032 44.576C130.483 42.6133 132.424 41.12 134.856 40.096C137.288 39.072 139.976 38.56 142.92 38.56C145.694 38.56 148.254 38.9867 150.6 39.84C152.99 40.6507 154.931 41.696 156.424 42.976C157.662 43.9573 158.28 45.088 158.28 46.368C158.28 47.3067 157.918 48.16 157.192 48.928C156.467 49.696 155.614 50.08 154.632 50.08C153.992 50.08 153.416 49.888 152.904 49.504C152.222 48.9067 151.304 48.352 150.152 47.84C149 47.2853 147.784 46.8373 146.504 46.496C145.224 46.112 144.03 45.92 142.92 45.92C141.086 45.92 139.528 46.1547 138.248 46.624C137.011 47.0933 136.072 47.7333 135.432 48.544C134.792 49.3547 134.472 50.2933 134.472 51.36C134.472 52.64 134.835 53.7067 135.56 54.56C136.328 55.3707 137.416 56.032 138.824 56.544C140.232 57.0133 141.918 57.44 143.88 57.824C146.44 58.2933 148.68 58.848 150.6 59.488C152.563 60.128 154.184 60.96 155.464 61.984C156.744 62.9653 157.704 64.224 158.344 65.76C158.984 67.2533 159.304 69.088 159.304 71.264C159.304 74.0373 158.536 76.4267 157 78.432C155.464 80.4373 153.438 81.9733 150.92 83.04C148.446 84.1067 145.758 84.64 142.856 84.64ZM183.988 49.12C187.401 49.12 189.918 49.952 191.54 51.616C193.161 53.2373 194.228 55.3493 194.74 57.952L193.652 57.376L194.164 56.352C194.676 55.3707 195.465 54.3253 196.532 53.216C197.598 52.064 198.878 51.104 200.372 50.336C201.908 49.5253 203.614 49.12 205.492 49.12C208.564 49.12 210.889 49.7813 212.468 51.104C214.089 52.4267 215.198 54.1973 215.796 56.416C216.393 58.592 216.692 61.024 216.692 63.712V80.096C216.692 81.2053 216.329 82.144 215.604 82.912C214.878 83.6373 213.961 84 212.852 84C211.742 84 210.825 83.6373 210.1 82.912C209.374 82.144 209.012 81.2053 209.012 80.096V63.712C209.012 62.304 208.841 61.0453 208.5 59.936C208.158 58.784 207.54 57.8667 206.644 57.184C205.748 56.5013 204.468 56.16 202.804 56.16C201.182 56.16 199.796 56.5013 198.644 57.184C197.492 57.8667 196.617 58.784 196.02 59.936C195.465 61.0453 195.188 62.304 195.188 63.712V80.096C195.188 81.2053 194.825 82.144 194.1 82.912C193.374 83.6373 192.457 84 191.348 84C190.238 84 189.321 83.6373 188.596 82.912C187.87 82.144 187.508 81.2053 187.508 80.096V63.712C187.508 62.304 187.337 61.0453 186.996 59.936C186.654 58.784 186.036 57.8667 185.14 57.184C184.244 56.5013 182.964 56.16 181.3 56.16C179.678 56.16 178.292 56.5013 177.14 57.184C175.988 57.8667 175.113 58.784 174.516 59.936C173.961 61.0453 173.684 62.304 173.684 63.712V80.096C173.684 81.2053 173.321 82.144 172.596 82.912C171.87 83.6373 170.953 84 169.844 84C168.734 84 167.817 83.6373 167.092 82.912C166.366 82.144 166.004 81.2053 166.004 80.096V53.664C166.004 52.5547 166.366 51.6373 167.092 50.912C167.817 50.144 168.734 49.76 169.844 49.76C170.953 49.76 171.87 50.144 172.596 50.912C173.321 51.6373 173.684 52.5547 173.684 53.664V56.416L172.724 56.224C173.108 55.4987 173.641 54.7307 174.324 53.92C175.006 53.0667 175.838 52.2773 176.82 51.552C177.801 50.8267 178.889 50.2507 180.084 49.824C181.278 49.3547 182.58 49.12 183.988 49.12ZM253.036 49.12C254.145 49.12 255.062 49.4827 255.788 50.208C256.513 50.9333 256.876 51.872 256.876 53.024V80.096C256.876 81.2053 256.513 82.144 255.788 82.912C255.062 83.6373 254.145 84 253.036 84C251.926 84 251.009 83.6373 250.284 82.912C249.558 82.144 249.196 81.2053 249.196 80.096V76.96L250.604 77.536C250.604 78.0907 250.305 78.7733 249.708 79.584C249.11 80.352 248.3 81.12 247.276 81.888C246.252 82.656 245.036 83.3173 243.628 83.872C242.262 84.384 240.769 84.64 239.148 84.64C236.204 84.64 233.537 83.8933 231.148 82.4C228.758 80.864 226.86 78.7733 225.452 76.128C224.086 73.44 223.404 70.368 223.404 66.912C223.404 63.4133 224.086 60.3413 225.452 57.696C226.86 55.008 228.737 52.9173 231.084 51.424C233.43 49.888 236.033 49.12 238.892 49.12C240.726 49.12 242.412 49.3973 243.948 49.952C245.484 50.5067 246.806 51.2107 247.916 52.064C249.068 52.9173 249.942 53.792 250.54 54.688C251.18 55.5413 251.5 56.2667 251.5 56.864L249.196 57.696V53.024C249.196 51.9147 249.558 50.9973 250.284 50.272C251.009 49.504 251.926 49.12 253.036 49.12ZM240.108 77.6C241.985 77.6 243.628 77.1307 245.036 76.192C246.444 75.2533 247.532 73.9733 248.3 72.352C249.11 70.7307 249.516 68.9173 249.516 66.912C249.516 64.864 249.11 63.0293 248.3 61.408C247.532 59.7867 246.444 58.5067 245.036 57.568C243.628 56.6293 241.985 56.16 240.108 56.16C238.273 56.16 236.652 56.6293 235.244 57.568C233.836 58.5067 232.726 59.7867 231.916 61.408C231.148 63.0293 230.764 64.864 230.764 66.912C230.764 68.9173 231.148 70.7307 231.916 72.352C232.726 73.9733 233.836 75.2533 235.244 76.192C236.652 77.1307 238.273 77.6 240.108 77.6ZM269.031 84C267.922 84 267.005 83.6373 266.279 82.912C265.554 82.144 265.191 81.2053 265.191 80.096V53.664C265.191 52.5547 265.554 51.6373 266.279 50.912C267.005 50.144 267.922 49.76 269.031 49.76C270.141 49.76 271.058 50.144 271.783 50.912C272.509 51.6373 272.871 52.5547 272.871 53.664V59.68L272.423 55.392C272.893 54.368 273.49 53.472 274.215 52.704C274.983 51.8933 275.837 51.232 276.775 50.72C277.714 50.1653 278.717 49.76 279.783 49.504C280.85 49.248 281.917 49.12 282.983 49.12C284.263 49.12 285.33 49.4827 286.183 50.208C287.079 50.9333 287.527 51.7867 287.527 52.768C287.527 54.176 287.165 55.2 286.439 55.84C285.714 56.4373 284.925 56.736 284.071 56.736C283.261 56.736 282.514 56.5867 281.831 56.288C281.191 55.9893 280.445 55.84 279.591 55.84C278.823 55.84 278.034 56.032 277.223 56.416C276.455 56.7573 275.73 57.312 275.047 58.08C274.407 58.848 273.874 59.808 273.447 60.96C273.063 62.0693 272.871 63.392 272.871 64.928V80.096C272.871 81.2053 272.509 82.144 271.783 82.912C271.058 83.6373 270.141 84 269.031 84ZM293.325 50.4H308.493C309.517 50.4 310.371 50.7413 311.053 51.424C311.736 52.1067 312.077 52.96 312.077 53.984C312.077 54.9653 311.736 55.7973 311.053 56.48C310.371 57.12 309.517 57.44 308.493 57.44H293.325C292.301 57.44 291.448 57.0987 290.765 56.416C290.083 55.7333 289.741 54.88 289.741 53.856C289.741 52.8747 290.083 52.064 290.765 51.424C291.448 50.7413 292.301 50.4 293.325 50.4ZM300.173 42.4C301.283 42.4 302.179 42.784 302.861 43.552C303.587 44.2773 303.949 45.1947 303.949 46.304V74.784C303.949 75.3813 304.056 75.872 304.269 76.256C304.525 76.64 304.845 76.9173 305.229 77.088C305.656 77.2587 306.104 77.344 306.573 77.344C307.085 77.344 307.555 77.2587 307.981 77.088C308.408 76.8747 308.899 76.768 309.453 76.768C310.051 76.768 310.584 77.0453 311.053 77.6C311.565 78.1547 311.821 78.9227 311.821 79.904C311.821 81.0987 311.16 82.08 309.837 82.848C308.557 83.616 307.171 84 305.677 84C304.781 84 303.779 83.936 302.669 83.808C301.603 83.6373 300.579 83.2747 299.597 82.72C298.659 82.1227 297.869 81.2267 297.229 80.032C296.589 78.8373 296.269 77.1947 296.269 75.104V46.304C296.269 45.1947 296.632 44.2773 297.357 43.552C298.125 42.784 299.064 42.4 300.173 42.4ZM334.169 84.64C331.182 84.64 328.494 84.2773 326.105 83.552C323.715 82.784 321.433 81.4613 319.257 79.584C318.702 79.1147 318.275 78.5813 317.977 77.984C317.678 77.3867 317.529 76.7893 317.529 76.192C317.529 75.2107 317.87 74.3573 318.553 73.632C319.278 72.864 320.174 72.48 321.241 72.48C322.051 72.48 322.777 72.736 323.417 73.248C325.038 74.5707 326.638 75.5733 328.217 76.256C329.838 76.9387 331.822 77.28 334.169 77.28C335.747 77.28 337.198 77.0453 338.521 76.576C339.843 76.064 340.91 75.4027 341.721 74.592C342.531 73.7387 342.937 72.7787 342.937 71.712C342.937 70.432 342.553 69.344 341.785 68.448C341.017 67.552 339.843 66.8053 338.265 66.208C336.686 65.568 334.681 65.0773 332.249 64.736C329.945 64.3947 327.918 63.8827 326.169 63.2C324.419 62.4747 322.947 61.5787 321.753 60.512C320.601 59.4027 319.726 58.1227 319.129 56.672C318.531 55.1787 318.233 53.5147 318.233 51.68C318.233 48.9067 318.937 46.5387 320.345 44.576C321.795 42.6133 323.737 41.12 326.169 40.096C328.601 39.072 331.289 38.56 334.233 38.56C337.006 38.56 339.566 38.9867 341.913 39.84C344.302 40.6507 346.243 41.696 347.737 42.976C348.974 43.9573 349.593 45.088 349.593 46.368C349.593 47.3067 349.23 48.16 348.505 48.928C347.779 49.696 346.926 50.08 345.945 50.08C345.305 50.08 344.729 49.888 344.217 49.504C343.534 48.9067 342.617 48.352 341.465 47.84C340.313 47.2853 339.097 46.8373 337.817 46.496C336.537 46.112 335.342 45.92 334.233 45.92C332.398 45.92 330.841 46.1547 329.561 46.624C328.323 47.0933 327.385 47.7333 326.745 48.544C326.105 49.3547 325.785 50.2933 325.785 51.36C325.785 52.64 326.147 53.7067 326.873 54.56C327.641 55.3707 328.729 56.032 330.137 56.544C331.545 57.0133 333.23 57.44 335.193 57.824C337.753 58.2933 339.993 58.848 341.913 59.488C343.875 60.128 345.497 60.96 346.777 61.984C348.057 62.9653 349.017 64.224 349.657 65.76C350.297 67.2533 350.617 69.088 350.617 71.264C350.617 74.0373 349.849 76.4267 348.313 78.432C346.777 80.4373 344.75 81.9733 342.233 83.04C339.758 84.1067 337.07 84.64 334.169 84.64ZM375.044 49.12C378.031 49.12 380.698 49.888 383.044 51.424C385.434 52.9173 387.311 54.9867 388.676 57.632C390.084 60.2773 390.788 63.3493 390.788 66.848C390.788 70.3467 390.084 73.44 388.676 76.128C387.311 78.7733 385.455 80.864 383.108 82.4C380.804 83.8933 378.202 84.64 375.3 84.64C373.594 84.64 371.994 84.3627 370.5 83.808C369.007 83.2533 367.684 82.5493 366.532 81.696C365.423 80.8427 364.548 79.9893 363.908 79.136C363.311 78.24 363.012 77.4933 363.012 76.896L364.996 76.064V92.896C364.996 94.0053 364.634 94.9227 363.908 95.648C363.183 96.416 362.266 96.8 361.156 96.8C360.047 96.8 359.13 96.4373 358.404 95.712C357.679 94.9867 357.316 94.048 357.316 92.896V53.664C357.316 52.5547 357.679 51.6373 358.404 50.912C359.13 50.144 360.047 49.76 361.156 49.76C362.266 49.76 363.183 50.144 363.908 50.912C364.634 51.6373 364.996 52.5547 364.996 53.664V56.8L363.908 56.224C363.908 55.6693 364.207 55.008 364.804 54.24C365.402 53.4293 366.212 52.64 367.236 51.872C368.26 51.0613 369.434 50.4 370.756 49.888C372.122 49.376 373.551 49.12 375.044 49.12ZM374.084 56.16C372.207 56.16 370.564 56.6293 369.156 57.568C367.748 58.5067 366.639 59.7867 365.828 61.408C365.06 62.9867 364.676 64.8 364.676 66.848C364.676 68.8533 365.06 70.688 365.828 72.352C366.639 73.9733 367.748 75.2533 369.156 76.192C370.564 77.1307 372.207 77.6 374.084 77.6C375.962 77.6 377.583 77.1307 378.948 76.192C380.356 75.2533 381.444 73.9733 382.212 72.352C383.023 70.688 383.428 68.8533 383.428 66.848C383.428 64.8 383.023 62.9867 382.212 61.408C381.444 59.7867 380.356 58.5067 378.948 57.568C377.583 56.6293 375.962 56.16 374.084 56.16ZM401.344 84C400.234 84 399.317 83.6373 398.592 82.912C397.866 82.144 397.504 81.2053 397.504 80.096V53.664C397.504 52.5547 397.866 51.6373 398.592 50.912C399.317 50.144 400.234 49.76 401.344 49.76C402.453 49.76 403.37 50.144 404.096 50.912C404.821 51.6373 405.184 52.5547 405.184 53.664V59.68L404.736 55.392C405.205 54.368 405.802 53.472 406.528 52.704C407.296 51.8933 408.149 51.232 409.088 50.72C410.026 50.1653 411.029 49.76 412.096 49.504C413.162 49.248 414.229 49.12 415.296 49.12C416.576 49.12 417.642 49.4827 418.496 50.208C419.392 50.9333 419.84 51.7867 419.84 52.768C419.84 54.176 419.477 55.2 418.752 55.84C418.026 56.4373 417.237 56.736 416.384 56.736C415.573 56.736 414.826 56.5867 414.144 56.288C413.504 55.9893 412.757 55.84 411.904 55.84C411.136 55.84 410.346 56.032 409.536 56.416C408.768 56.7573 408.042 57.312 407.36 58.08C406.72 58.848 406.186 59.808 405.76 60.96C405.376 62.0693 405.184 63.392 405.184 64.928V80.096C405.184 81.2053 404.821 82.144 404.096 82.912C403.37 83.6373 402.453 84 401.344 84ZM457.032 66.912C457.032 70.4107 456.243 73.504 454.664 76.192C453.128 78.8373 451.038 80.9067 448.392 82.4C445.79 83.8933 442.867 84.64 439.624 84.64C436.382 84.64 433.438 83.8933 430.792 82.4C428.19 80.9067 426.099 78.8373 424.52 76.192C422.984 73.504 422.216 70.4107 422.216 66.912C422.216 63.4133 422.984 60.3413 424.52 57.696C426.099 55.008 428.19 52.9173 430.792 51.424C433.438 49.888 436.382 49.12 439.624 49.12C442.867 49.12 445.79 49.888 448.392 51.424C451.038 52.9173 453.128 55.008 454.664 57.696C456.243 60.3413 457.032 63.4133 457.032 66.912ZM449.352 66.912C449.352 64.736 448.904 62.8587 448.008 61.28C447.155 59.6587 445.982 58.4 444.488 57.504C443.038 56.608 441.416 56.16 439.624 56.16C437.832 56.16 436.19 56.608 434.696 57.504C433.246 58.4 432.072 59.6587 431.176 61.28C430.323 62.8587 429.896 64.736 429.896 66.912C429.896 69.0453 430.323 70.9227 431.176 72.544C432.072 74.1227 433.246 75.36 434.696 76.256C436.19 77.152 437.832 77.6 439.624 77.6C441.416 77.6 443.038 77.152 444.488 76.256C445.982 75.36 447.155 74.1227 448.008 72.544C448.904 70.9227 449.352 69.0453 449.352 66.912ZM489.162 49.76C490.271 49.76 491.188 50.144 491.914 50.912C492.639 51.6373 493.002 52.5547 493.002 53.664V69.92C493.002 74.4427 491.743 78.0267 489.226 80.672C486.708 83.3173 483.082 84.64 478.346 84.64C473.61 84.64 469.983 83.3173 467.466 80.672C464.991 78.0267 463.754 74.4427 463.754 69.92V53.664C463.754 52.5547 464.116 51.6373 464.842 50.912C465.567 50.144 466.484 49.76 467.594 49.76C468.703 49.76 469.62 50.144 470.346 50.912C471.071 51.6373 471.434 52.5547 471.434 53.664V69.92C471.434 72.5227 472.01 74.464 473.162 75.744C474.314 76.9813 476.042 77.6 478.346 77.6C480.692 77.6 482.442 76.9813 483.594 75.744C484.746 74.464 485.322 72.5227 485.322 69.92V53.664C485.322 52.5547 485.684 51.6373 486.41 50.912C487.135 50.144 488.052 49.76 489.162 49.76ZM501.7 50.4H516.868C517.892 50.4 518.746 50.7413 519.428 51.424C520.111 52.1067 520.452 52.96 520.452 53.984C520.452 54.9653 520.111 55.7973 519.428 56.48C518.746 57.12 517.892 57.44 516.868 57.44H501.7C500.676 57.44 499.823 57.0987 499.14 56.416C498.458 55.7333 498.116 54.88 498.116 53.856C498.116 52.8747 498.458 52.064 499.14 51.424C499.823 50.7413 500.676 50.4 501.7 50.4ZM508.548 42.4C509.658 42.4 510.554 42.784 511.236 43.552C511.962 44.2773 512.324 45.1947 512.324 46.304V74.784C512.324 75.3813 512.431 75.872 512.644 76.256C512.9 76.64 513.22 76.9173 513.604 77.088C514.031 77.2587 514.479 77.344 514.948 77.344C515.46 77.344 515.93 77.2587 516.356 77.088C516.783 76.8747 517.274 76.768 517.828 76.768C518.426 76.768 518.959 77.0453 519.428 77.6C519.94 78.1547 520.196 78.9227 520.196 79.904C520.196 81.0987 519.535 82.08 518.212 82.848C516.932 83.616 515.546 84 514.052 84C513.156 84 512.154 83.936 511.044 83.808C509.978 83.6373 508.954 83.2747 507.972 82.72C507.034 82.1227 506.244 81.2267 505.604 80.032C504.964 78.8373 504.644 77.1947 504.644 75.104V46.304C504.644 45.1947 505.007 44.2773 505.732 43.552C506.5 42.784 507.439 42.4 508.548 42.4Z" fill="white"/>
</svg>
