<svg width="85" height="75" viewBox="0 0 85 75" fill="none" xmlns="http://www.w3.org/2000/svg">
<rect x="2.59492" y="18.7486" width="75.6676" height="41.7332" rx="7.21525" stroke="#348E2B" stroke-width="4.81016"/>
<rect x="9.57227" y="25.7692" width="61.7146" height="27.6923" rx="2.40508" fill="#70D767"/>
<g filter="url(#filter0_d_6_198)">
<path d="M21.235 38.7785C17.6776 34.9386 55.9186 -4.41445 51.4721 7.10363C47.0256 18.6217 32.4841 32.5572 41.6896 33.0195C50.8951 33.4818 62.1442 31.1 62.144 33.0195C62.1439 34.939 28.3494 68.5337 27.4603 64.6945C26.5711 60.8553 39.911 43.578 38.1322 43.5778C36.3534 43.5776 24.7923 42.6184 21.235 38.7785Z" fill="#F9FCF8"/>
<path d="M51.377 2.5965C51.9497 2.61402 52.7106 2.79482 53.3438 3.41095C53.9614 4.01195 54.1646 4.7432 54.2188 5.27521C54.3151 6.22193 54.0129 7.1999 53.7158 7.96954C52.5174 11.074 50.6723 14.2652 48.8096 17.2274C46.8514 20.3412 45.0638 22.9227 43.5146 25.4608C42.7742 26.6738 42.1751 27.742 41.751 28.6609C41.3427 29.5456 41.1635 30.1525 41.1143 30.5291C41.2583 30.5633 41.4812 30.6005 41.8105 30.617L42.6436 30.6512C46.835 30.782 51.398 30.3598 55.1885 30.075C57.1415 29.9283 58.9826 29.8104 60.3506 29.8719C61.0047 29.9013 61.7856 29.9775 62.4717 30.2293C63.1111 30.464 64.5488 31.2321 64.5488 33.0193C64.5488 33.7382 64.2321 34.3035 64.168 34.4236C64.0371 34.6685 63.8791 34.9088 63.7285 35.1219C63.4216 35.5561 63.0062 36.075 62.5264 36.6424C61.5581 37.7874 60.1993 39.2795 58.5957 40.9725C55.3815 44.3657 51.1 48.6543 46.7949 52.7576C42.4986 56.8527 38.1324 60.8075 34.7588 63.5115C33.0948 64.8453 31.5662 65.9609 30.3643 66.6219C29.8147 66.924 29.065 67.2867 28.2832 67.3807C27.8749 67.4297 27.1872 67.4396 26.4883 67.0594C25.7924 66.6807 25.3827 66.0816 25.1875 65.4901L25.1172 65.2371C24.8464 64.068 25.1574 62.8296 25.4521 61.9334C25.7831 60.9271 26.2848 59.8139 26.8584 58.6854C28.0091 56.4217 29.589 53.823 31.0908 51.4217C32.4445 49.2573 33.7153 47.2822 34.6582 45.7195C33.2532 45.5598 31.5842 45.3214 29.874 44.9754C28.0169 44.5996 26.0361 44.0865 24.25 43.3885C22.6175 42.7505 20.9468 41.8822 19.7119 40.6619L19.4707 40.4129C18.4867 39.3507 18.5373 38.0234 18.665 37.2645C18.8046 36.4359 19.1454 35.5812 19.5361 34.784C20.3303 33.1637 21.6186 31.2167 23.1553 29.1531C26.2513 24.9955 30.6321 19.9964 34.9551 15.5125C39.2591 11.0483 43.6266 6.96824 46.7012 4.71368C47.4751 4.14621 48.2242 3.65183 48.9082 3.29181C49.4883 2.98653 50.4003 2.56667 51.377 2.5965Z" stroke="#348E2B" stroke-width="4.81016" stroke-linecap="round"/>
</g>
<rect x="75.8574" y="30.3845" width="9.1429" height="18.4615" rx="2.40508" fill="#348E2B"/>
<defs>
<filter id="filter0_d_6_198" x="16.1934" y="0.189697" width="50.7607" height="74.4302" filterUnits="userSpaceOnUse" color-interpolation-filters="sRGB">
<feFlood flood-opacity="0" result="BackgroundImageFix"/>
<feColorMatrix in="SourceAlpha" type="matrix" values="0 0 0 0 0 0 0 0 0 0 0 0 0 0 0 0 0 0 127 0" result="hardAlpha"/>
<feOffset dy="4.81016"/>
<feComposite in2="hardAlpha" operator="out"/>
<feColorMatrix type="matrix" values="0 0 0 0 0.439216 0 0 0 0 0.843137 0 0 0 0 0.403922 0 0 0 1 0"/>
<feBlend mode="normal" in2="BackgroundImageFix" result="effect1_dropShadow_6_198"/>
<feBlend mode="normal" in="SourceGraphic" in2="effect1_dropShadow_6_198" result="shape"/>
</filter>
</defs>
</svg>
