<svg width="90" height="90" viewBox="0 0 90 90" fill="none" xmlns="http://www.w3.org/2000/svg">
<circle cx="45" cy="45" r="45" fill="#348E2B"/>
<path d="M33.25 65.125C32.2188 65.125 31.3359 64.7578 30.6016 64.0234C29.8672 63.2891 29.5 62.4062 29.5 61.375V27.625C29.5 26.5938 29.8672 25.7109 30.6016 24.9766C31.3359 24.2422 32.2188 23.875 33.25 23.875H52C53.0312 23.875 53.9141 24.2422 54.6484 24.9766C55.3828 25.7109 55.75 26.5938 55.75 27.625V35.125H52V33.25H33.25V55.75H52V53.875H55.75V61.375C55.75 62.4062 55.3828 63.2891 54.6484 64.0234C53.9141 64.7578 53.0312 65.125 52 65.125H33.25ZM33.25 59.5V61.375H52V59.5H33.25ZM50.0312 52L42.0625 44.0312L44.6875 41.4062L50.0312 46.75L60.625 36.1562L63.25 38.7813L50.0312 52ZM33.25 29.5H52V27.625H33.25V29.5Z" fill="white"/>
</svg>
