<svg width="39" height="50" viewBox="0 0 39 50" fill="none" xmlns="http://www.w3.org/2000/svg">
<path d="M0 30.6587C0 28.3586 0.627286 25.7188 1.88186 22.7392C3.13643 19.7595 4.75693 16.8583 6.74334 14.0878C10.8207 8.70361 14.3753 4.62624 17.3549 1.88186L19.3152 0C19.9686 0.679561 20.7005 1.30685 21.4846 1.88186C22.5562 2.97961 24.2028 4.78306 26.3983 7.34449C28.5938 9.90591 30.5018 12.1798 32.07 14.2708C33.9258 16.9106 35.5201 19.7595 36.8008 22.7653C38.0815 25.771 38.735 28.4109 38.735 30.6848C38.735 33.2985 38.2384 35.7815 37.219 38.16C36.1997 40.5384 34.8406 42.6032 33.1155 44.3283C31.3905 46.0533 29.3257 47.4386 26.9211 48.4579C24.5165 49.4773 21.9812 50 19.3152 50C16.7015 50 14.2185 49.5034 11.84 48.5102C9.46158 47.517 7.39676 46.184 5.67172 44.459C3.94668 42.7601 2.56142 40.6952 1.54208 38.3168C0.522738 35.9383 0 33.3769 0 30.6587ZM5.90695 23.0005C5.90695 25.1699 6.35128 26.8949 7.26608 28.2018C8.18087 29.4825 9.56613 30.1359 11.4219 30.1359C13.3037 30.1359 14.689 29.4825 15.6299 28.2018C16.5447 26.9211 17.0152 25.196 17.0413 23.0005C17.0152 20.805 16.5447 19.08 15.6299 17.7731C14.7151 16.4924 13.3037 15.839 11.4219 15.839C9.56613 15.839 8.18087 16.4924 7.26608 17.7731C6.35128 19.08 5.90695 20.805 5.90695 23.0005ZM10.0105 23.0005C10.0105 22.6085 10.0105 22.2948 10.0105 22.0857C10.0105 21.8766 10.0366 21.5891 10.0627 21.2232C10.0889 20.8573 10.115 20.5698 10.1934 20.3868C10.2718 20.2039 10.3241 19.9686 10.4286 19.7595C10.5332 19.5504 10.6639 19.3675 10.8207 19.2891C11.0037 19.1845 11.1866 19.1323 11.4219 19.1323C11.7878 19.1323 12.0753 19.2368 12.2844 19.4459C12.4935 19.655 12.6503 19.9948 12.7287 20.4391C12.8071 20.9096 12.8594 21.2755 12.8855 21.6153C12.9117 21.955 12.9117 22.3994 12.9117 22.9744C12.9117 23.5755 12.9117 24.0199 12.8855 24.3335C12.8594 24.6472 12.8071 25.0392 12.7287 25.5097C12.6503 25.954 12.4935 26.2938 12.2844 26.5029C12.0753 26.712 11.7878 26.8165 11.4219 26.8165C11.1866 26.8165 11.0037 26.7642 10.8207 26.6597C10.6377 26.5551 10.5071 26.3983 10.4286 26.1892C10.3241 25.9801 10.2457 25.7449 10.1934 25.5619C10.1411 25.3528 10.0889 25.0653 10.0627 24.7256C10.0366 24.3596 10.0105 24.0721 10.0105 23.8892C10.0105 23.7062 10.0105 23.3926 10.0105 23.0005ZM11.5525 43.2567H15.0026L28.045 15.1856H24.5165L11.5525 43.2567ZM22.7914 35.4417C22.8176 37.6372 23.3142 39.3623 24.229 40.6691C25.1438 41.9498 26.5552 42.6032 28.4109 42.6032C30.2927 42.6032 31.678 41.9498 32.5928 40.6691C33.5076 39.3884 33.9519 37.6372 33.978 35.4417C33.9519 33.2462 33.5076 31.5212 32.5928 30.2405C31.678 28.9597 30.2927 28.3063 28.4109 28.3063C26.5552 28.3063 25.1438 28.9597 24.229 30.2405C23.288 31.5212 22.8176 33.2462 22.7914 35.4417ZM26.8949 35.4417C26.8949 34.8406 26.8949 34.3962 26.9211 34.0826C26.9472 33.7689 26.9995 33.3769 27.0779 32.9064C27.1563 32.436 27.3131 32.1223 27.5222 31.9132C27.7313 31.7041 28.0188 31.5996 28.3847 31.5996C28.62 31.5996 28.8291 31.6519 29.012 31.7564C29.195 31.861 29.3257 32.0178 29.4302 32.253C29.5348 32.4882 29.6132 32.6973 29.6916 32.8803C29.77 33.0633 29.7961 33.3508 29.8223 33.7167L29.8484 34.5531V35.4417V36.3565L29.8223 37.1929L29.6916 38.0293L29.4302 38.6566L29.012 39.1532L28.3847 39.31C28.0188 39.31 27.7313 39.2054 27.5222 38.9963C27.3131 38.7872 27.1563 38.4475 27.0779 38.0031C26.9995 37.5327 26.9472 37.1406 26.9211 36.827C26.8949 36.5133 26.8949 36.0429 26.8949 35.4417Z" fill="black"/>
</svg>
