<svg width="60" height="47" viewBox="0 0 60 47" fill="none" xmlns="http://www.w3.org/2000/svg">
<path d="M0 35.9845C0 35.3472 0.231772 34.7967 0.666345 34.3621C1.12989 33.9276 1.68035 33.7248 2.31772 33.7248H37.3153C37.9527 33.7248 38.4742 33.9276 38.8798 34.3621C39.2854 34.7967 39.5171 35.3472 39.5171 36.0135C39.5171 36.6509 39.3143 37.1724 38.8798 37.578C38.4742 37.9836 37.9527 38.2154 37.3153 38.2154H2.31772C1.68035 38.2154 1.10092 38.0125 0.666345 37.578C0.202801 37.1434 0 36.6219 0 35.9845ZM6.98213 27.5828C6.98213 26.9454 7.21391 26.4239 7.64848 25.9894C8.08305 25.5548 8.63351 25.323 9.27088 25.323H44.2974C44.9058 25.323 45.4273 25.5548 45.8619 25.9894C46.2965 26.4239 46.4993 26.9454 46.4993 27.5828C46.4993 28.2202 46.2965 28.7417 45.8619 29.2052C45.4273 29.6398 44.9058 29.8716 44.2974 29.8716H9.29986C8.66248 29.8716 8.11202 29.6398 7.67745 29.2052C7.24288 28.7706 6.98213 28.2202 6.98213 27.5828ZM11.6755 44.2125C11.6755 43.6041 11.9073 43.0826 12.3708 42.648C12.7764 42.2424 13.2979 42.0106 13.9353 42.0106H48.9908C49.6282 42.0106 50.1787 42.2134 50.6132 42.648C51.0478 43.0536 51.2506 43.5751 51.2506 44.2125C51.2506 44.8498 51.0188 45.4003 50.5843 45.8349C50.1497 46.2694 49.5992 46.5012 48.9618 46.5012H13.9353C13.2979 46.5012 12.7764 46.2694 12.3129 45.8349C11.8493 45.4003 11.6755 44.8498 11.6755 44.2125ZM42.3274 35.9845C42.3274 35.3182 42.5302 34.7677 42.9647 34.3332C43.3993 33.8986 43.9498 33.6958 44.6161 33.6958H57.7112C58.3776 33.6958 58.9281 33.8986 59.3626 34.3332C59.7972 34.7677 60 35.3182 60 35.9556C60 36.5929 59.7972 37.1144 59.3626 37.52C58.9281 37.9256 58.3776 38.1574 57.7402 38.1574H44.6451C43.9788 38.1574 43.4283 37.9546 42.9937 37.52C42.5302 37.1434 42.3274 36.6219 42.3274 35.9845Z" fill="black"/>
<path d="M43.9414 12.7632C43.9414 14.1796 44.2955 15.5037 45.0191 16.72C45.7427 17.9362 46.7127 18.9216 47.9443 19.6452C49.176 20.3688 50.5001 20.7383 51.9319 20.7383C53.3637 20.7383 54.7031 20.3688 55.9502 19.6452C57.1973 18.9216 58.1826 17.9362 58.9062 16.72C59.6298 15.4883 59.9993 14.1796 59.9993 12.7632C59.9993 11.8395 59.7376 10.7463 59.1987 9.46848C58.6599 8.19062 58.0133 7.00514 57.2589 5.92742C56.5814 5.04986 55.7809 4.07992 54.8571 3.03299C53.9333 1.98607 52.3168 0.369502 51.9473 0L49.9766 1.98607C49.0221 2.90983 48.0983 3.97214 47.2207 5.18842C46.3432 6.4047 45.5734 7.71335 44.9267 9.11438C44.2493 10.5154 43.9414 11.7317 43.9414 12.7632Z" fill="black"/>
</svg>
