<svg width="50" height="51" viewBox="0 0 50 51" fill="none" xmlns="http://www.w3.org/2000/svg">
<path d="M0 25C0 24.435 0.188324 23.9407 0.588512 23.5405C0.9887 23.1638 1.48305 22.9755 2.00094 22.9755H6.8032C7.34463 22.9755 7.7919 23.1638 8.16855 23.564C8.52166 23.9642 8.70998 24.435 8.70998 25C8.70998 25.565 8.5452 26.0358 8.19209 26.436C7.83898 26.8362 7.36817 27.0245 6.82674 27.0245H2.02448C1.48305 27.0245 1.01224 26.8362 0.612053 26.436C0.211865 26.0358 0 25.565 0 25ZM6.73258 41.3136C6.73258 40.7721 6.9209 40.3013 7.27401 39.8776L10.7345 36.5113C11.0876 36.1346 11.5584 35.9699 12.1234 35.9699C12.6883 35.9699 13.1591 36.1582 13.5358 36.5113C13.9124 36.8644 14.1008 37.3117 14.1008 37.8531C14.1008 38.4181 13.9124 38.936 13.5358 39.3597L10.193 42.7024C9.22787 43.4557 8.26271 43.4557 7.29755 42.7024C6.9209 42.3258 6.73258 41.855 6.73258 41.3136ZM6.73258 8.73352C6.73258 8.19209 6.9209 7.72128 7.27401 7.29755C7.74482 6.89736 8.23917 6.70904 8.7806 6.70904C9.29849 6.70904 9.7693 6.89736 10.1695 7.27401L13.5358 10.7345C13.9124 11.0876 14.1008 11.5584 14.1008 12.1234C14.1008 12.6883 13.9124 13.1591 13.5358 13.5358C13.1591 13.9124 12.6883 14.1008 12.1234 14.1008C11.5584 14.1008 11.0876 13.9124 10.7345 13.5358L7.29755 10.1695C6.9209 9.79284 6.73258 9.29849 6.73258 8.73352ZM12.7354 25C12.7354 22.8107 13.2768 20.7627 14.3832 18.8795C15.4896 16.9962 16.9727 15.4896 18.8795 14.3832C20.7863 13.2768 22.8107 12.7354 25 12.7354C26.6478 12.7354 28.225 13.065 29.7552 13.7241C31.2618 14.3832 32.58 15.2542 33.6629 16.3606C34.7693 17.467 35.6403 18.7618 36.2759 20.2684C36.9115 21.775 37.2411 23.3757 37.2411 25.0235C37.2411 27.2363 36.6996 29.2844 35.5932 31.1676C34.4868 33.0508 33.0038 34.5339 31.1205 35.6403C29.2373 36.7467 27.1893 37.2881 24.9765 37.2881C22.7637 37.2881 20.7156 36.7467 18.8324 35.6403C16.9492 34.5339 15.4661 33.0508 14.3597 31.1676C13.3004 29.2608 12.7354 27.2128 12.7354 25ZM16.7373 25C16.7373 27.307 17.5377 29.2608 19.162 30.8851C20.7627 32.5094 22.7166 33.3333 25.0235 33.3333C27.3305 33.3333 29.2844 32.5094 30.9087 30.8851C32.533 29.2608 33.3569 27.307 33.3569 25C33.3569 22.7401 32.533 20.8098 30.9087 19.1855C29.2844 17.5847 27.3305 16.7844 25.0235 16.7844C22.7401 16.7844 20.7863 17.5847 19.1855 19.1855C17.5377 20.8098 16.7373 22.7401 16.7373 25ZM22.9991 43.3145C22.9991 42.7495 23.1874 42.2787 23.5876 41.9021C23.9878 41.5254 24.4586 41.3371 25 41.3371C25.565 41.3371 26.0593 41.5254 26.436 41.9021C26.8126 42.2787 27.0009 42.7495 27.0009 43.3145V47.9991C27.0009 48.564 26.8126 49.0584 26.4124 49.4586C26.0122 49.8588 25.5414 50.0471 25 50.0471C24.4586 50.0471 23.9642 49.8588 23.5876 49.4586C23.1874 49.0584 22.9991 48.564 22.9991 47.9991V43.3145ZM22.9991 6.82674V2.02448C22.9991 1.48305 23.1874 1.01224 23.5876 0.612053C23.9878 0.211865 24.4586 0 25.0235 0C25.5885 0 26.0358 0.188324 26.436 0.588512C26.8362 0.9887 27.0245 1.45951 27.0245 2.00094V6.82674C27.0245 7.36817 26.8362 7.81544 26.436 8.19209C26.0358 8.56874 25.565 8.73352 25.0235 8.73352C24.4821 8.73352 23.9878 8.5452 23.6111 8.19209C23.2345 7.83898 22.9991 7.36817 22.9991 6.82674ZM35.9934 37.8531C35.9934 37.3117 36.1817 36.8644 36.5348 36.5348C36.8879 36.1582 37.3352 35.9934 37.8531 35.9934C38.4181 35.9934 38.8889 36.1817 39.2655 36.5348L42.7024 39.9011C43.0791 40.3013 43.2674 40.7957 43.2674 41.3371C43.2674 41.8785 43.0791 42.3493 42.7024 42.726C41.7608 43.4557 40.8192 43.4557 39.8776 42.726L36.5348 39.3832C36.1817 38.9595 35.9934 38.4652 35.9934 37.8531ZM35.9934 12.1469C35.9934 11.5584 36.1817 11.0876 36.5348 10.758L39.8776 7.29755C40.2778 6.9209 40.7486 6.73258 41.2665 6.73258C41.8314 6.73258 42.3023 6.9209 42.6789 7.32109C43.0791 7.72128 43.2674 8.19209 43.2674 8.73352C43.2674 9.32203 43.0791 9.81638 42.7024 10.193L39.2655 13.5593C38.8418 13.936 38.371 14.1243 37.8531 14.1243C37.3117 14.1243 36.8879 13.936 36.5348 13.5593C36.1817 13.1827 35.9934 12.7119 35.9934 12.1469ZM41.3136 25C41.3136 24.435 41.5019 23.9642 41.8785 23.5405C42.2552 23.1638 42.7024 22.9755 43.2203 22.9755H47.9755C48.5169 22.9755 48.9878 23.1874 49.3879 23.5876C49.7881 23.9878 50 24.4586 50 25C50 25.5414 49.7881 26.0122 49.3879 26.4124C48.9878 26.8126 48.5169 27.0009 47.9755 27.0009H43.2203C42.6789 27.0009 42.2081 26.8126 41.855 26.4124C41.5019 26.0122 41.3136 25.565 41.3136 25Z" fill="black"/>
</svg>
