<svg width="90" height="90" viewBox="0 0 90 90" fill="none" xmlns="http://www.w3.org/2000/svg">
<circle cx="45" cy="45" r="45" fill="#348E2B"/>
<path d="M53.3333 63.75V59.5833C53.3333 57.3732 52.4553 55.2536 50.8925 53.6908C49.3297 52.128 47.2101 51.25 44.9999 51.25H30.4166C28.2064 51.25 26.0868 52.128 24.524 53.6908C22.9612 55.2536 22.0833 57.3732 22.0833 59.5833V63.75M61.6666 36.6667V49.1667M67.9166 42.9167H55.4166M46.0416 34.5833C46.0416 39.1857 42.3106 42.9167 37.7083 42.9167C33.1059 42.9167 29.3749 39.1857 29.3749 34.5833C29.3749 29.981 33.1059 26.25 37.7083 26.25C42.3106 26.25 46.0416 29.981 46.0416 34.5833Z" stroke="white" stroke-width="4" stroke-linecap="round" stroke-linejoin="round"/>
</svg>
