<svg width="28" height="60" viewBox="0 0 28 60" fill="none" xmlns="http://www.w3.org/2000/svg">
<path d="M0 46.2019C0 43.8932 0.543233 41.7474 1.60254 39.7374C2.66184 37.7275 4.15573 36.0706 6.0842 34.7397V7.79538C6.0842 5.62245 6.81757 3.77546 8.31145 2.28158C9.80534 0.787687 11.6523 0 13.8253 0C16.0254 0 17.8723 0.760526 19.3662 2.25441C20.8601 3.77546 21.6206 5.59529 21.6206 7.76822V34.7125C23.5491 36.0435 25.0158 37.7275 26.0751 39.7103C27.1345 41.6931 27.6505 43.866 27.6505 46.1747C27.6505 48.6736 27.0258 51.0095 25.8035 53.1281C24.5813 55.2467 22.8972 56.9307 20.7786 58.153C18.66 59.3753 16.3513 60 13.8253 60C11.3264 60 9.01766 59.3753 6.89905 58.153C4.78044 56.9307 3.09642 55.2467 1.84699 53.1281C0.597556 51.0095 0 48.7008 0 46.2019ZM4.78044 46.2019C4.78044 48.7279 5.67678 50.9009 7.44228 52.6935C9.20779 54.4862 11.3536 55.3825 13.8524 55.3825C16.3785 55.3825 18.5514 54.4862 20.3712 52.6664C22.191 50.8465 23.1145 48.7008 23.1145 46.2291C23.1145 44.545 22.6799 42.9697 21.8108 41.5301C20.9416 40.0905 19.7465 38.9769 18.2254 38.1892L17.4649 37.809C17.1933 37.7003 17.0575 37.4287 17.0575 37.0213V7.79538C17.0575 6.92621 16.7587 6.19285 16.134 5.59529C15.5093 5.0249 14.7488 4.72612 13.8253 4.72612C12.9561 4.72612 12.1956 5.0249 11.5708 5.59529C10.9461 6.16569 10.6474 6.89905 10.6474 7.79538V36.967C10.6474 37.3744 10.5115 37.646 10.2671 37.7546L9.53373 38.1349C8.03984 38.9226 6.87189 40.0362 6.02988 41.4758C5.18787 42.9153 4.78044 44.4636 4.78044 46.2019Z" fill="black"/>
</svg>
