<svg width="90" height="129" viewBox="0 0 90 129" fill="none" xmlns="http://www.w3.org/2000/svg">
<path d="M39.6191 101.542C42.2363 100.134 45.374 100.122 48.0078 101.528L61.1572 108.547C63.4729 107.821 66.1232 107.856 68.4053 108.653L82.2881 113.503L82.6348 113.631C84.3489 114.293 85.7333 115.316 86.5752 116.691C87.498 118.199 87.6359 119.929 87.0645 121.499C85.9476 124.567 82.5114 126.405 78.501 126.405H12.1934C8.24753 126.405 4.85062 124.62 3.67871 121.627C3.07788 120.092 3.15722 118.38 4.02246 116.86C4.86499 115.38 6.3277 114.289 8.14746 113.598L20.9189 108.748L21.3828 108.584C23.4218 107.918 25.7329 107.85 27.8281 108.377L39.3672 101.682L39.6191 101.542Z" fill="#F9FCF8" stroke="white" stroke-width="4.81016"/>
<path d="M81.5996 13.0925C71.0305 13.6325 60.7529 19.154 54.0342 29.1218L53.7041 29.6199C46.9689 39.9416 45.5105 52.5737 48.749 63.781C59.3177 63.2406 69.5951 57.7202 76.3135 47.7527L76.6436 47.2546C83.3788 36.9328 84.8383 24.2999 81.5996 13.0925Z" fill="white" stroke="white" stroke-width="3.4983"/>
<path d="M47.958 58.2715C48.0505 55.9711 49.4686 53.5142 50.8098 51.6254C53.4318 47.9326 56.9509 44.9535 60.0339 41.6075C62.555 38.8715 65.708 36.651 68.2019 33.9239C69.0453 33.0017 70.5061 32.209 71.0888 31.1358" stroke="white" stroke-width="4.81016" stroke-linecap="round"/>
<path d="M11.7241 2.42238C26.4631 3.56947 40.4083 12.0722 48.6151 26.5664L48.9935 27.2468C56.8326 41.5846 57.3391 58.4487 51.6975 72.7675L51.2258 73.9658L49.9405 73.865C35.4317 72.7358 21.6929 64.4795 13.439 50.3964L13.0504 49.7221C4.8502 35.2396 4.23606 18.0669 9.96702 3.52087L10.4387 2.32257L11.7241 2.42238Z" fill="white" stroke="#F9FCF8" stroke-width="3.4983"/>
<path d="M32.2988 38.4373C33.1137 39.2103 33.7072 40.2669 34.3528 41.1814C36.2257 43.8343 38.1678 46.4797 39.8574 49.261C41.3906 51.785 42.7395 54.367 44.0232 57.0283C46.2923 61.7323 48.7262 67.3926 48.6325 72.747C48.5679 76.4416 48.5394 80.0042 47.9418 83.6679C47.5898 85.8257 47.2104 87.964 46.7986 90.1079C46.5156 91.5815 46.4414 93.1123 46.0927 94.5597C45.9743 95.0514 45.3773 97.2409 45.7658 97.5927" stroke="white" stroke-width="4.81016" stroke-linecap="round"/>
<path d="M32.4453 36.6128C32.4453 35.4982 32.7416 34.428 32.9703 33.3465C33.0992 32.7374 33.207 32.1254 33.3416 31.5174C33.5264 30.6826 33.5506 29.8238 33.7314 28.9887C33.9275 28.0829 34.0549 27.1679 34.2776 26.2667C34.3856 25.8297 34.4734 25.3871 34.5667 24.9466C34.6031 24.7746 34.6886 24.5905 34.6886 24.4131" stroke="white" stroke-width="4.81016" stroke-linecap="round"/>
<path d="M31.348 37.7885C30.6502 37.761 29.9592 37.3921 29.2797 37.2496C28.4242 37.07 27.5695 36.862 26.7182 36.6616C26.0939 36.5147 25.4966 36.2434 24.8938 36.0247C24.5711 35.9076 24.232 35.835 23.9048 35.7307C23.7531 35.6824 23.5865 35.5837 23.4248 35.5837" stroke="white" stroke-width="4.81016" stroke-linecap="round"/>
</svg>
