<svg width="60" height="60" viewBox="0 0 60 60" fill="none" xmlns="http://www.w3.org/2000/svg">
<path d="M20.5879 7.92578C23.3019 5.08033 27.456 5.13088 30.0264 7.95508L30.2695 8.23633C35.2977 14.3608 42.081 24.8081 45.3643 39.4141L45.6709 40.8398C46.2647 43.7339 45.969 46.1252 45.1152 48.1016C44.2546 50.0935 42.761 51.8157 40.7324 53.2412C36.6265 56.1265 30.5276 57.6448 24.2129 57.5938C17.9007 57.5427 11.7857 55.9264 7.66211 53.0049C5.62254 51.5598 4.126 49.8382 3.2666 47.8789C2.46909 46.0605 2.16445 43.9121 2.61328 41.3691L2.71289 40.8555C5.84991 26.0607 13.9449 15.0445 20.0078 8.54102L20.5879 7.92578Z" fill="#F9FCF8" stroke="#348E2B" stroke-width="4.81016"/>
<path d="M39.8271 26.4706C42.2978 23.6876 46.2239 23.743 48.5361 26.4872L48.7549 26.7607C51.848 30.8528 55.3873 36.9381 57.2295 44.953L57.4023 45.7343C57.7711 47.4686 57.5798 48.8457 57.0811 49.9599C56.5733 51.094 55.6736 52.1161 54.3848 52.9902C51.7584 54.7712 47.7718 55.7514 43.5674 55.7187C39.3653 55.6859 35.3623 54.6444 32.7188 52.8368C31.4191 51.9481 30.5164 50.9241 30.0098 49.8095C29.5453 48.7874 29.3532 47.5597 29.6289 46.0546L29.6904 45.7499C31.4255 37.8529 35.4475 31.6123 39.1016 27.3056L39.8271 26.4706Z" fill="#70D767" stroke="#F9FCF8" stroke-width="4.81016"/>
<path d="M21.29 50.625C8.70946 50.6252 7.7422 44.0098 12.5807 35.6249" stroke="#70D767" stroke-width="4.81016" stroke-linecap="round"/>
</svg>
